<?xml version="1.0" standalone="no"?>
<!DOCTYPE svg PUBLIC "-//W3C//DTD SVG 20010904//EN"
 "http://www.w3.org/TR/2001/REC-SVG-20010904/DTD/svg10.dtd">
<svg version="1.0" xmlns="http://www.w3.org/2000/svg"
 width="450.000000pt" height="450.000000pt" viewBox="0 0 450.000000 450.000000"
 preserveAspectRatio="xMidYMid meet">
<metadata>
Created by potrace 1.14, written by Peter Selinger 2001-2017
</metadata>
<g transform="translate(0.000000,450.000000) scale(0.100000,-0.100000)"
fill="#000000" stroke="none">
<path d="M3300 2320 c0 -5 -10 -10 -23 -10 -22 0 -24 -8 -65 -257 -81 -491
-200 -1431 -190 -1493 3 -19 5 -18 54 10 l51 29 12 98 c50 416 187 1246 260
1575 l9 36 -32 -5 c-22 -3 -36 0 -45 11 -15 18 -31 21 -31 6z"/>
<path d="M1394 2282 c3 -15 23 -143 45 -285 21 -142 41 -260 44 -264 6 -6 249
-25 254 -19 5 5 -36 516 -42 526 -9 15 -36 12 -55 -5 -10 -9 -45 -18 -83 -21
l-65 -5 -38 45 c-47 57 -68 67 -60 28z"/>
<path d="M1875 2270 c-17 -18 -17 -29 -7 -152 6 -73 14 -173 17 -223 3 -49 8
-114 11 -142 l5 -53 130 0 129 0 0 237 c0 210 -5 269 -26 311 0 1 -18 -5 -39
-14 -44 -18 -75 -13 -125 21 -53 35 -74 38 -95 15z"/>
<path d="M1073 2248 c59 -248 185 -973 237 -1363 17 -132 34 -250 36 -262 4
-23 104 -88 115 -75 10 10 -59 586 -136 1147 -25 180 -83 533 -89 544 -4 5
-29 7 -59 4 -41 -4 -56 -2 -66 11 -21 25 -44 21 -38 -6z"/>
<path d="M2799 2253 c-19 -5 -23 -34 -39 -258 -5 -77 -13 -169 -16 -204 l-7
-64 49 6 c27 4 88 9 135 13 l87 7 10 76 c6 42 20 143 32 224 12 81 20 151 16
154 -7 8 -110 6 -151 -3 -25 -5 -34 -1 -53 25 -22 30 -30 33 -63 24z"/>
<path d="M2497 2205 c-22 -31 -60 -41 -93 -26 -21 9 -31 8 -55 -6 l-29 -17 0
-230 0 -229 127 7 c70 3 128 8 130 10 2 1 10 94 18 207 8 112 16 220 17 239 3
32 0 35 -30 41 -19 4 -39 12 -45 18 -15 15 -19 14 -40 -14z"/>
<path d="M1473 1619 c3 -19 24 -110 45 -204 l39 -170 89 -12 c185 -24 567 -35
810 -24 225 10 462 35 476 49 7 7 76 373 72 382 -1 3 -37 2 -81 -2 -159 -15
-947 -21 -1160 -9 -114 6 -228 14 -252 18 l-44 6 6 -34z m1422 -38 c3 -5 1
-12 -5 -16 -12 -8 -13 -92 -1 -99 5 -3 6 -36 3 -72 -4 -57 -2 -69 13 -80 16
-12 16 -14 -9 -26 -39 -17 -55 -3 -85 75 -14 37 -28 67 -31 67 -3 0 -3 -27 -2
-60 2 -33 8 -60 13 -60 5 0 9 -4 9 -10 0 -5 -19 -10 -41 -10 -35 0 -40 2 -29
15 8 9 9 28 5 57 -4 24 -9 72 -11 108 -1 36 -4 74 -6 85 -2 14 3 21 17 23 31
4 53 -18 81 -83 l25 -60 -4 59 c-2 34 -9 62 -16 64 -9 3 -9 7 0 18 13 16 65
19 74 5z m-1146 -27 c49 -62 7 -154 -69 -154 -17 0 -20 -7 -20 -50 0 -32 4
-50 12 -50 9 0 9 -3 0 -12 -14 -14 -81 -12 -96 2 -6 6 -2 12 8 16 14 5 17 19
17 73 0 36 2 88 5 115 5 35 2 51 -7 57 -22 14 2 24 69 27 55 2 62 0 81 -24z
m160 -8 c12 -13 25 -41 28 -62 3 -21 10 -41 14 -44 5 -3 2 -24 -6 -45 -8 -22
-14 -47 -15 -56 0 -9 -10 -28 -21 -43 -16 -21 -29 -26 -52 -24 -40 4 -65 40
-77 110 -10 63 7 136 39 170 23 24 64 22 90 -6z m211 4 c21 -16 25 -27 25 -70
0 -42 -4 -55 -24 -71 -13 -10 -36 -19 -52 -19 -28 0 -29 -2 -29 -45 0 -32 5
-47 15 -51 30 -12 -4 -34 -46 -30 -45 4 -60 13 -41 25 9 5 13 32 13 77 0 38 1
89 2 114 0 25 -1 52 -3 60 -4 10 6 16 30 21 61 11 84 9 110 -11z m173 7 c15
-1 17 -9 15 -52 -2 -36 -7 -50 -18 -50 -10 0 -17 13 -20 35 -4 27 -10 35 -25
35 -17 0 -20 -8 -23 -49 -2 -27 1 -53 7 -59 7 -7 7 -14 0 -23 -6 -7 -9 -30 -7
-51 2 -30 7 -38 23 -38 14 0 21 8 23 28 2 19 9 27 23 27 27 0 25 -47 -3 -77
-44 -47 -93 -18 -122 72 -14 44 -14 57 -2 110 17 69 54 111 90 100 12 -4 29
-7 39 -8z m154 -9 c11 -13 27 -46 36 -74 14 -44 14 -57 3 -108 -15 -61 -48
-106 -78 -106 -29 0 -66 43 -74 86 -3 22 -10 46 -15 55 -11 21 18 118 44 147
11 12 30 22 42 22 12 0 31 -10 42 -22z m219 -3 c15 -23 16 -33 7 -68 -7 -26
-8 -46 -2 -53 5 -6 11 -32 14 -59 2 -26 9 -53 15 -61 9 -9 6 -15 -9 -23 -41
-22 -58 0 -63 84 -2 29 -8 41 -20 43 -15 3 -18 -5 -18 -52 0 -30 5 -58 10 -61
19 -12 0 -23 -40 -23 -22 0 -42 3 -45 9 -4 5 -1 9 5 9 17 0 8 239 -10 250 -21
13 12 25 79 28 55 3 61 1 77 -23z"/>
<path d="M1676 1542 c-2 -4 -7 -26 -11 -50 -7 -42 -6 -44 16 -40 20 2 24 10
27 44 2 30 -1 43 -12 47 -9 4 -17 3 -20 -1z"/>
<path d="M1853 1532 c-8 -5 -12 -38 -12 -94 1 -48 -2 -91 -5 -96 -8 -14 19
-46 33 -38 7 5 11 35 10 85 -1 43 1 83 5 89 7 12 -2 62 -13 62 -3 0 -11 -4
-18 -8z"/>
<path d="M2047 1524 c-11 -11 -8 -82 3 -89 21 -13 41 17 38 54 -3 34 -24 52
-41 35z"/>
<path d="M2387 1523 c-11 -10 -8 -81 3 -88 5 -3 6 -15 1 -28 -4 -12 -6 -41 -3
-64 3 -34 8 -43 23 -43 17 0 19 8 18 98 -1 53 -3 105 -6 115 -4 17 -24 23 -36
10z"/>
<path d="M2580 1496 c0 -40 3 -46 21 -46 18 0 20 5 17 42 -2 31 -8 44 -20 46
-15 3 -18 -4 -18 -42z"/>
<path d="M1554 1143 c3 -10 22 -162 41 -338 20 -176 39 -322 42 -325 7 -8 168
-49 172 -44 5 4 -14 431 -26 610 l-6 91 -99 12 c-129 14 -130 14 -124 -6z"/>
<path d="M2779 1148 l-76 -10 -7 -87 c-3 -47 -10 -189 -16 -316 -6 -126 -12
-242 -15 -256 -7 -45 9 -49 98 -25 l82 22 7 45 c4 24 21 168 38 319 17 151 32
285 35 298 5 20 2 22 -32 21 -21 -1 -72 -6 -114 -11z"/>
<path d="M1943 1003 c4 -65 11 -194 17 -288 5 -93 11 -203 12 -243 3 -67 5
-73 26 -79 13 -3 40 -3 61 0 21 2 44 1 52 -3 7 -5 21 -4 31 1 17 9 18 31 16
367 l-3 357 -109 3 -109 3 6 -118z m84 -599 c-3 -3 -12 -4 -19 -1 -8 3 -5 6 6
6 11 1 17 -2 13 -5z"/>
<path d="M2320 760 l0 -360 -80 0 c-50 0 -80 -4 -80 -11 0 -10 166 -5 235 7
17 3 47 6 68 8 l38 2 4 74 c20 338 35 608 35 623 0 15 -12 17 -110 17 l-110 0
0 -360z"/>
<path d="M1838 423 c6 -2 18 -2 25 0 6 3 1 5 -13 5 -14 0 -19 -2 -12 -5z"/>
<path d="M1903 413 c9 -2 23 -2 30 0 6 3 -1 5 -18 5 -16 0 -22 -2 -12 -5z"/>
</g>
</svg>
